IKResults
version=1
nRows=19
nColumns=24
inDegrees=yes

Units are S.I. units (second, meters, Newtons, ...)
If the header above contains a line with 'inDegrees', this indicates whether rotational values are in degrees (yes) or radians (no).

endheader
time	pelvis_tilt	pelvis_list	pelvis_rotation	pelvis_tx	pelvis_ty	pelvis_tz	hip_flexion_r	hip_adduction_r	hip_rotation_r	knee_angle_r	ankle_angle_r	subtalar_angle_r	mtp_angle_r	hip_flexion_l	hip_adduction_l	hip_rotation_l	knee_angle_l	ankle_angle_l	subtalar_angle_l	mtp_angle_l	lumbar_extension	lumbar_bending	lumbar_rotation
      7.01000000	     -4.09733260	     -9.76273716	    -91.14219955	     -0.28383996	      0.97228307	      0.40878424	    -11.66191041	      7.80618043	     -7.80712449	      8.31123727	     -4.53731528	      4.90641352	      0.00000000	     19.14806253	    -13.95853061	     -7.93646449	    -69.62574275	    -12.15781050	    -14.18135705	      0.00000000	    -30.10534750	      5.04333516	      6.75486084
      7.02000000	     -3.68267777	     -9.67174589	    -91.17340364	     -0.28449588	      0.97336804	      0.42140040	    -12.90190226	      7.48028280	     -8.14505093	      9.24707584	     -4.43669745	      5.59616442	      0.00000000	     20.53783827	    -13.30692781	     -8.11370328	    -68.30958896	    -11.16456953	    -13.94827098	      0.00000000	    -30.00681529	      4.57710013	      6.97274119
      7.03000000	     -3.30385662	     -9.57146991	    -91.27340397	     -0.28511204	      0.97416513	      0.43396500	    -14.13473361	      7.17858058	     -8.48442530	     10.19857925	     -4.35910794	      6.35952623	      0.00000000	     21.77898846	    -12.65071641	     -8.34094052	    -66.66262109	    -10.00182165	    -13.50137142	      0.00000000	    -29.91304591	      4.13281468	      7.23891603
      7.04000000	     -2.97641865	     -9.46077264	    -91.43914345	     -0.28571650	      0.97466679	      0.44649627	    -15.35519375	      6.91546759	     -8.79518630	     11.15368343	     -4.30362512	      7.15615176	      0.00000000	     22.86479593	    -12.02707311	     -8.61730468	    -64.67752358	     -8.74780863	    -12.88552853	      0.00000000	    -29.82559739	      3.72317240	      7.55116631
      7.05000000	     -2.70688001	     -9.33735470	    -91.66655029	     -0.28633305	      0.97487707	      0.45900662	    -16.55298305	      6.69446713	     -9.06447641	     12.09569661	     -4.26684243	      7.97813090	      0.00000000	     23.78642073	    -11.45566069	     -8.94090251	    -62.34406139	     -7.49358816	    -12.17554174	      0.00000000	    -29.74070347	      3.35543467	      7.90605480
      7.06000000	     -2.50299212	     -9.19727846	    -91.93261855	     -0.28696264	      0.97476770	      0.47150574	    -17.72177584	      6.52942600	     -9.30183359	     13.01755880	     -4.23818862	      8.80738018	      0.00000000	     24.55335888	    -10.95341948	     -9.29991576	    -59.67166358	     -6.31994713	    -11.44350498	      0.00000000	    -29.64799418	      3.04519258	      8.28880754
      7.07000000	     -2.35843832	     -9.03531800	    -92.22055645	     -0.28760874	      0.97435016	      0.48398475	    -18.85020747	      6.41458638	     -9.49979033	     13.90718106	     -4.20049443	      9.61505205	      0.00000000	     25.15800341	    -10.50695132	     -9.68051691	    -56.63813043	     -5.27899031	    -10.74320465	      0.00000000	    -29.55009735	      2.78990972	      8.67348189
      7.08000000	     -2.26015169	     -8.84928148	    -92.51669364	     -0.28824982	      0.97361388	      0.49644862	    -19.93641502	      6.34019006	     -9.68520923	     14.76570386	     -4.14427498	     10.42653620	      0.00000000	     25.59375604	    -10.09648862	    -10.07737116	    -53.23508495	     -4.38570274	    -10.09103987	      0.00000000	    -29.43736591	      2.58159454	      9.05469215
      7.09000000	     -2.18328731	     -8.63753440	    -92.81429730	     -0.28886989	      0.97257905	      0.50891920	    -20.98536050	      6.28106707	     -9.86388163	     15.60238727	     -4.06627726	     11.24090852	      0.00000000	     25.82821648	     -9.68834267	    -10.49936745	    -49.41743859	     -3.60090216	     -9.44426345	      0.00000000	    -29.30856088	      2.39786567	      9.41769814
      7.10000000	     -2.13003756	     -8.40249996	    -93.11838579	     -0.28949403	      0.97129099	      0.52139524	    -21.98545224	      6.19450430	     -9.73444654	     16.37577562	     -3.98720843	     11.60045359	      0.00000000	     25.82237608	     -9.30379801	    -10.99869734	    -45.14342525	     -2.85567294	     -8.62541405	      0.00000000	    -29.16971552	      2.20963453	      9.58796986
      7.11000000	     -1.96118712	     -8.18411468	    -93.37956848	     -0.28988602	      0.96981152	      0.53401041	    -23.04299959	      6.08178832	    -10.34108117	     17.25725209	     -3.87170685	     12.98300672	      0.00000000	     25.45628409	     -8.69629371	    -11.50011229	    -40.27181819	     -2.19258322	     -7.86280533	      0.00000000	    -29.04686388	      1.97194949	      9.99198075
      7.12000000	     -1.77262662	     -7.99522963	    -93.60666584	     -0.29018545	      0.96821217	      0.54678001	    -24.11299272	      5.90819438	    -10.70150614	     18.07578650	     -3.74801265	     13.93755532	      0.00000000	     24.66956454	     -8.02450338	    -12.10794766	    -34.74087086	     -1.62439465	     -6.81238518	      0.00000000	    -28.95777391	      1.69762801	     10.15181715
      7.13000000	     -1.51896061	     -7.89247469	    -93.77550551	     -0.29028771	      0.96658602	      0.55985066	    -25.27144570	      5.67487332	    -11.17809038	     18.86638650	     -3.60179382	     14.96074311	      0.00000000	     23.28388033	     -7.18536413	    -12.86485049	    -28.33656068	     -1.34978279	     -5.58299520	      0.00000000	    -28.93772199	      1.37544444	     10.19355810
      7.14000000	     -1.22066868	     -7.99575056	    -93.91892641	     -0.29022111	      0.96512988	      0.57334692	    -26.61219487	      5.40155450	    -11.90673085	     19.54914727	     -3.35120408	     16.31509073	      0.00000000	     20.91064618	     -6.13773499	    -13.98720237	    -20.57611952	     -1.69636071	     -4.14796719	      0.00000000	    -29.11277998	      1.00397023	     10.11870244
      7.15000000	     -0.95389254	     -8.39767785	    -94.21177811	     -0.29026044	      0.96377042	      0.58750293	    -28.33387641	      5.00462692	    -12.14076483	     20.23179388	     -3.12993950	     17.07987737	      0.00000000	     16.71966799	     -4.77348831	    -16.35779445	    -10.06755178	     -3.45777679	     -1.89708809	      0.00000000	    -29.53682070	      0.58981107	     10.20405672
      7.16000000	     -1.72527606	     -9.22589601	    -94.88922999	     -0.29121829	      0.96145622	      0.60275693	    -30.59780442	      5.48543343	    -11.93988467	     20.71041686	     -2.74235012	     18.21974071	      0.00000000	     11.19137802	     -3.92475629	    -20.92119987	      1.91923252	     -6.44443813	      3.11028506	      0.00000000	    -30.27182349	      1.00948479	     10.57193580
      7.17000000	     -3.27673476	     -9.72084599	    -95.86605976	     -0.29286586	      0.95798619	      0.61716357	    -32.49678591	      6.53849392	    -10.85651149	     21.03261417	     -2.44525016	     18.80398093	      0.00000000	      8.82991368	     -4.37912977	    -25.15836696	      8.30566042	     -7.48068291	      8.50982549	      0.00000000	    -30.81237485	      2.09315804	     11.44789021
      7.18000000	     -4.92565928	    -10.14750729	    -97.31557210	     -0.29500486	      0.95515887	      0.63020731	    -34.12929479	      7.25800210	     -8.91407260	     21.02321256	     -2.18004937	     18.72090613	      0.00000000	      7.69151206	     -5.27880305	    -29.10533999	     12.10847337	     -7.61624834	     13.00922664	      0.00000000	    -31.59035234	      3.03727774	     12.82742650
      7.19000000	     -6.66205768	    -10.64226510	    -99.23359768	     -0.29760714	      0.95336415	      0.64215654	    -35.60137065	      7.58664796	     -6.11246805	     20.55692717	     -1.83561051	     17.94099178	      0.00000000	      6.80473115	     -6.44632122	    -32.99509596	     14.71696881	     -7.44719262	     16.76618630	      0.00000000	    -32.74530791	      3.78456834	     14.77060540
